<?xml version="1.0" encoding="UTF-8"?>
<svg xmlns="http://www.w3.org/2000/svg" id="Layer_1" data-name="Layer 1" viewBox="0 0 24 24" width="512" height="512"><path d="m12,0C5.383,0,0,5.383,0,12s5.383,12,12,12,12-5.383,12-12S18.617,0,12,0Zm-4,21.164v-2.164c0-.552.449-1,1-1h6c.551,0,1,.448,1,1v2.164c-1.226.537-2.578.836-4,.836s-2.774-.299-4-.836Zm10-1.169v-.995c0-1.654-1.346-3-3-3h-6c-1.654,0-3,1.346-3,3v.995c-2.427-1.826-4-4.73-4-7.995C2,6.486,6.486,2,12,2s10,4.486,10,10c0,3.264-1.573,6.169-4,7.995Zm-6-13.995c-2.206,0-4,1.794-4,4s1.794,4,4,4,4-1.794,4-4-1.794-4-4-4Zm0,6c-1.103,0-2-.897-2-2s.897-2,2-2,2,.897,2,2-.897,2-2,2Z"/></svg>
