<?xml version="1.0" encoding="UTF-8"?>
<svg xmlns="http://www.w3.org/2000/svg" id="Layer_1" data-name="Layer 1" viewBox="0 0 24 24" width="512" height="512"><path d="M12,17c-2.76,0-5-2.24-5-5s2.24-5,5-5,5,2.24,5,5-2.24,5-5,5Zm0-8c-1.65,0-3,1.35-3,3s1.35,3,3,3,3-1.35,3-3-1.35-3-3-3ZM13,0h-2V5h2V0Zm0,19h-2v5h2v-5ZM5,11H0v2H5v-2Zm19,0h-5v2h5v-2Zm-2.81-6.78l-1.41-1.41-3.54,3.54,1.41,1.41,3.54-3.54ZM7.76,17.66l-1.41-1.41-3.54,3.54,1.41,1.41,3.54-3.54Zm0-11.31l-3.54-3.54-1.41,1.41,3.54,3.54,1.41-1.41Zm13.44,13.44l-3.54-3.54-1.41,1.41,3.54,3.54,1.41-1.41Z"/></svg>
