<?xml version="1.0" encoding="UTF-8"?>
<svg xmlns="http://www.w3.org/2000/svg" id="Layer_1" data-name="Layer 1" viewBox="0 0 24 24">
  <path d="m19.239,0H4.76C2.687,0,1,1.688,1,3.761c0,.922.337,1.81.95,2.498l7.05,7.932v6.31c0,.176.092.339.243.429l5,3c.079.048.168.071.257.071.085,0,.17-.021.246-.064.157-.089.254-.256.254-.436v-9.31l7.051-7.932c.612-.688.949-1.576.949-2.498,0-2.073-1.688-3.761-3.761-3.761Zm2.063,5.595l-7.177,8.073c-.081.092-.126.21-.126.332v8.617l-4-2.4v-6.217c0-.122-.045-.24-.126-.332L2.697,5.595c-.45-.506-.697-1.157-.697-1.834,0-1.522,1.238-2.761,2.76-2.761h14.479c1.522,0,2.761,1.238,2.761,2.761,0,.677-.247,1.328-.697,1.834Z"/>
</svg>
